<?xml version="1.0" encoding="UTF-8"?>
<svg id="Layer_2" data-name="Layer 2" xmlns="http://www.w3.org/2000/svg" viewBox="0 0 564.93 155">
  <defs>
    <style>
      .cls-2 {
        stroke: #f26739;
        stroke-miterlimit: 10;
        stroke-width: 5px;
      }
    </style>
  </defs>
  <g>
    <g>
      <g>
        <path className="fill-primary" d="m155.39,130.53c-29.29,29.29-76.78,29.29-106.07,0-10.81-10.81-17.62-24.1-20.45-38.03h-11.37c-8.28,0-15-6.72-15-15h0c0-8.28,6.72-15,15-15h11.37c2.83-13.94,9.64-27.22,20.45-38.03,29.29-29.29,76.78-29.29,106.07,0s29.29,76.78,0,106.07ZM70.53,45.68c-4.91,4.91-8.45,10.68-10.61,16.82h22.6v-4.12c0-7.7,8.33-12.51,15-8.66l33.12,19.12c6.67,3.85,6.67,13.47,0,17.32l-33.12,19.12c-6.67,3.85-15-.96-15-8.66v-4.12s-22.6,0-22.6,0c2.17,6.14,5.7,11.91,10.61,16.82,17.57,17.57,46.07,17.57,63.64,0,17.57-17.57,17.57-46.07,0-63.64-17.57-17.57-46.07-17.57-63.64,0Z"/>
        <path className="Stroke-[#231f20]" d="m155.39,130.53c-29.29,29.29-76.78,29.29-106.07,0-10.81-10.81-17.62-24.1-20.45-38.03h-11.37c-8.28,0-15-6.72-15-15h0c0-8.28,6.72-15,15-15h11.37c2.83-13.94,9.64-27.22,20.45-38.03,29.29-29.29,76.78-29.29,106.07,0s29.29,76.78,0,106.07ZM70.53,45.68c-4.91,4.91-8.45,10.68-10.61,16.82h22.6v-4.12c0-7.7,8.33-12.51,15-8.66l33.12,19.12c6.67,3.85,6.67,13.47,0,17.32l-33.12,19.12c-6.67,3.85-15-.96-15-8.66v-4.12s-22.6,0-22.6,0c2.17,6.14,5.7,11.91,10.61,16.82,17.57,17.57,46.07,17.57,63.64,0,17.57-17.57,17.57-46.07,0-63.64-17.57-17.57-46.07-17.57-63.64,0Z"/>
        <path className="Stroke-[#231f20]" d="m155.39,130.53c-29.29,29.29-76.78,29.29-106.07,0-10.81-10.81-17.62-24.1-20.45-38.03h-11.37c-8.28,0-15-6.72-15-15h0c0-8.28,6.72-15,15-15h11.37c2.83-13.94,9.64-27.22,20.45-38.03,29.29-29.29,76.78-29.29,106.07,0s29.29,76.78,0,106.07ZM70.53,45.68c-4.91,4.91-8.45,10.68-10.61,16.82h22.6v-4.12c0-7.7,8.33-12.51,15-8.66l33.12,19.12c6.67,3.85,6.67,13.47,0,17.32l-33.12,19.12c-6.67,3.85-15-.96-15-8.66v-4.12s-22.6,0-22.6,0c2.17,6.14,5.7,11.91,10.61,16.82,17.57,17.57,46.07,17.57,63.64,0,17.57-17.57,17.57-46.07,0-63.64-17.57-17.57-46.07-17.57-63.64,0Z"/>
        <path className="cls-2" d="m155.39,130.53c-29.29,29.29-76.78,29.29-106.07,0-10.81-10.81-17.62-24.1-20.45-38.03h-11.37c-8.28,0-15-6.72-15-15h0c0-8.28,6.72-15,15-15h11.37c2.83-13.94,9.64-27.22,20.45-38.03,29.29-29.29,76.78-29.29,106.07,0s29.29,76.78,0,106.07ZM70.53,45.68c-4.91,4.91-8.45,10.68-10.61,16.82h22.6v-4.12c0-7.7,8.33-12.51,15-8.66l33.12,19.12c6.67,3.85,6.67,13.47,0,17.32l-33.12,19.12c-6.67,3.85-15-.96-15-8.66v-4.12s-22.6,0-22.6,0c2.17,6.14,5.7,11.91,10.61,16.82,17.57,17.57,46.07,17.57,63.64,0,17.57-17.57,17.57-46.07,0-63.64-17.57-17.57-46.07-17.57-63.64,0Z"/>
      </g>
      <g>
        <path d="m274.7,31.33c0,1.51-.07,2.8-.2,3.87-.13,1.07-.33,1.93-.59,2.58-.26.65-.59,1.13-.98,1.45s-.82.47-1.29.47h-25.31v81.48c0,.52-.17.99-.51,1.41-.34.42-.9.76-1.68,1.02-.78.26-1.84.47-3.16.62s-2.98.23-4.96.23-3.63-.08-4.96-.23-2.38-.36-3.16-.62c-.78-.26-1.34-.6-1.68-1.02-.34-.42-.51-.88-.51-1.41V39.69h-25.31c-.52,0-.96-.16-1.33-.47-.37-.31-.68-.79-.94-1.45-.26-.65-.46-1.51-.59-2.58-.13-1.07-.2-2.36-.2-3.87s.06-2.89.2-3.98c.13-1.09.32-1.96.59-2.62.26-.65.57-1.12.94-1.41.36-.29.81-.43,1.33-.43h71.25c.47,0,.9.14,1.29.43.39.29.71.76.98,1.41.26.65.46,1.52.59,2.62.13,1.09.2,2.42.2,3.98Z"/>
        <path d="m306.65,28.05c0,3.96-.81,6.69-2.42,8.2-1.62,1.51-4.61,2.27-8.98,2.27s-7.41-.73-8.95-2.19c-1.54-1.46-2.3-4.09-2.3-7.89s.79-6.71,2.38-8.24c1.59-1.54,4.6-2.3,9.02-2.3s7.34.74,8.91,2.23,2.34,4.13,2.34,7.93Zm-1.48,93.28c0,.52-.16.98-.47,1.37s-.85.72-1.6.98c-.76.26-1.76.46-3.01.59-1.25.13-2.84.2-4.77.2s-3.52-.07-4.77-.2c-1.25-.13-2.25-.32-3.01-.59-.76-.26-1.29-.59-1.6-.98s-.47-.85-.47-1.37V51.8c0-.52.16-.98.47-1.37s.85-.73,1.6-1.02c.75-.29,1.76-.51,3.01-.66s2.84-.23,4.77-.23,3.52.08,4.77.23,2.25.38,3.01.66c.75.29,1.29.62,1.6,1.02s.47.85.47,1.37v69.53Z"/>
        <path d="m366.02,114.45c0,2.29-.14,4.05-.43,5.27-.29,1.22-.66,2.08-1.13,2.58-.47.5-1.16.94-2.07,1.33-.91.39-1.98.73-3.2,1.02-1.22.29-2.55.51-3.98.66-1.43.16-2.88.23-4.34.23-3.91,0-7.29-.5-10.16-1.48-2.87-.99-5.23-2.51-7.11-4.57-1.88-2.06-3.26-4.65-4.14-7.77-.89-3.12-1.33-6.82-1.33-11.09v-35.7h-8.36c-.99,0-1.75-.61-2.27-1.84-.52-1.22-.78-3.27-.78-6.13,0-1.51.06-2.79.2-3.83.13-1.04.32-1.86.59-2.46.26-.6.59-1.03.98-1.29.39-.26.85-.39,1.37-.39h8.28v-15.55c0-.52.14-.99.43-1.41.29-.42.81-.77,1.56-1.05.75-.29,1.77-.49,3.05-.62,1.28-.13,2.85-.2,4.73-.2s3.53.07,4.8.2c1.28.13,2.28.34,3.01.62.73.29,1.25.64,1.56,1.05.31.42.47.89.47,1.41v15.55h15.16c.52,0,.98.13,1.37.39.39.26.71.69.98,1.29.26.6.46,1.42.59,2.46.13,1.04.2,2.32.2,3.83,0,2.87-.26,4.91-.78,6.13-.52,1.22-1.28,1.84-2.27,1.84h-15.23v32.73c0,3.8.6,6.65,1.8,8.55,1.2,1.9,3.33,2.85,6.41,2.85,1.04,0,1.98-.09,2.81-.27.83-.18,1.57-.39,2.23-.62.65-.23,1.2-.44,1.64-.62.44-.18.85-.27,1.21-.27.31,0,.61.09.9.27.29.18.51.55.66,1.09s.3,1.29.43,2.23c.13.94.2,2.14.2,3.59Z"/>
        <path d="m449.15,85.78c0,5.94-.78,11.36-2.34,16.25-1.56,4.9-3.93,9.12-7.11,12.66-3.18,3.54-7.16,6.28-11.95,8.2-4.79,1.93-10.39,2.89-16.8,2.89s-11.59-.86-16.17-2.58c-4.58-1.72-8.39-4.22-11.41-7.5-3.02-3.28-5.26-7.32-6.72-12.11-1.46-4.79-2.19-10.26-2.19-16.41s.79-11.37,2.38-16.29c1.59-4.92,3.97-9.14,7.15-12.66,3.18-3.52,7.15-6.24,11.91-8.16,4.77-1.93,10.35-2.89,16.76-2.89s11.67.85,16.25,2.54c4.58,1.69,8.37,4.18,11.37,7.46,2.99,3.28,5.22,7.32,6.68,12.11,1.46,4.79,2.19,10.29,2.19,16.48Zm-20.23.78c0-3.44-.27-6.6-.82-9.49s-1.47-5.4-2.77-7.54c-1.3-2.13-3.04-3.8-5.2-5-2.16-1.2-4.88-1.8-8.16-1.8-2.92,0-5.47.54-7.66,1.6-2.19,1.07-3.98,2.63-5.39,4.69-1.41,2.06-2.46,4.53-3.16,7.42s-1.05,6.19-1.05,9.88c0,3.44.29,6.6.86,9.49.57,2.89,1.5,5.4,2.77,7.54,1.28,2.14,3.01,3.79,5.2,4.96s4.89,1.76,8.12,1.76c2.97,0,5.55-.53,7.73-1.6,2.19-1.07,3.98-2.62,5.39-4.65s2.45-4.49,3.12-7.38c.68-2.89,1.02-6.18,1.02-9.88Z"/>
        <path d="m485.87,123.67c0,5.47-.47,9.89-1.41,13.28-.94,3.38-2.36,6.24-4.26,8.55-1.9,2.32-4.29,4.06-7.15,5.23-2.87,1.17-6.22,1.76-10.08,1.76-2.14,0-3.96-.14-5.47-.43-1.51-.29-2.61-.59-3.28-.9s-1.14-.7-1.41-1.17c-.26-.47-.44-1-.55-1.6-.1-.6-.18-1.28-.23-2.03-.05-.76-.08-1.73-.08-2.93,0-1.46.04-2.67.12-3.63.08-.96.22-1.73.43-2.3.21-.57.44-.99.7-1.25s.6-.39,1.02-.39c.26,0,.79.06,1.6.2.81.13,1.68.2,2.62.2,1.35,0,2.53-.21,3.52-.62.99-.42,1.8-1.08,2.42-1.99.62-.91,1.09-2.08,1.41-3.52.31-1.43.47-3.71.47-6.84V51.8c0-.52.16-.98.47-1.37s.83-.73,1.56-1.02c.73-.29,1.72-.51,2.97-.66s2.84-.23,4.77-.23,3.52.08,4.77.23,2.25.38,3.01.66c.75.29,1.29.62,1.6,1.02s.47.85.47,1.37v71.88Zm1.48-95.62c0,3.96-.79,6.69-2.38,8.2-1.59,1.51-4.6,2.27-9.02,2.27s-7.34-.73-8.91-2.19c-1.56-1.46-2.34-4.09-2.34-7.89s.81-6.71,2.42-8.24c1.61-1.54,4.61-2.3,8.98-2.3s7.41.74,8.95,2.23c1.54,1.48,2.3,4.13,2.3,7.93Z"/>
        <path d="m564.93,121.56c0,.73-.26,1.3-.78,1.72-.52.42-1.34.71-2.46.9-1.12.18-2.77.27-4.96.27-2.34,0-4.05-.09-5.12-.27-1.07-.18-1.82-.48-2.27-.9-.44-.42-.66-.99-.66-1.72v-5.55c-2.87,3.07-6.13,5.47-9.8,7.19s-7.75,2.58-12.23,2.58c-3.7,0-7.1-.48-10.2-1.45-3.1-.96-5.78-2.39-8.05-4.3-2.27-1.9-4.02-4.26-5.27-7.07s-1.88-6.09-1.88-9.84c0-4.06.79-7.59,2.38-10.59,1.59-2.99,3.96-5.47,7.11-7.42,3.15-1.95,7.07-3.4,11.76-4.34s10.13-1.41,16.33-1.41h6.8v-4.22c0-2.19-.22-4.1-.66-5.74-.44-1.64-1.17-3.01-2.19-4.1s-2.37-1.9-4.06-2.42c-1.69-.52-3.79-.78-6.29-.78-3.28,0-6.21.37-8.79,1.09-2.58.73-4.86,1.54-6.84,2.42-1.98.89-3.63,1.69-4.96,2.42-1.33.73-2.41,1.09-3.24,1.09-.57,0-1.08-.18-1.52-.55-.44-.36-.81-.88-1.09-1.56-.29-.68-.51-1.51-.66-2.5-.16-.99-.23-2.08-.23-3.28,0-1.61.13-2.89.39-3.83.26-.94.75-1.78,1.48-2.54.73-.75,2-1.59,3.83-2.5,1.82-.91,3.96-1.76,6.41-2.54,2.45-.78,5.12-1.42,8.01-1.91,2.89-.49,5.87-.74,8.95-.74,5.47,0,10.14.54,14.02,1.6,3.88,1.07,7.07,2.71,9.57,4.92,2.5,2.21,4.32,5.07,5.47,8.55,1.14,3.49,1.72,7.63,1.72,12.42v46.88Zm-19.3-29.84h-7.5c-3.18,0-5.89.23-8.12.7-2.24.47-4.06,1.17-5.47,2.11s-2.44,2.07-3.09,3.4c-.65,1.33-.98,2.85-.98,4.57,0,2.92.92,5.21,2.77,6.88,1.85,1.67,4.41,2.5,7.7,2.5,2.76,0,5.3-.7,7.62-2.11,2.32-1.41,4.67-3.46,7.07-6.17v-11.88Z"/>
      </g>
    </g>
  </g>
</svg>